<svg width="36" height="34" viewBox="0 0 36 34" fill="none" xmlns="http://www.w3.org/2000/svg">
<path d="M34.6406 15.5495L27.5938 21.6995L29.7047 30.8558C29.8164 31.3345 29.7845 31.8354 29.6131 32.2961C29.4416 32.7567 29.1381 33.1566 28.7406 33.4457C28.3431 33.7348 27.8692 33.9004 27.3782 33.9216C26.8871 33.9429 26.4007 33.8189 25.9797 33.5652L17.9938 28.7214L10.025 33.5652C9.60402 33.8189 9.11759 33.9429 8.62652 33.9216C8.13546 33.9004 7.66156 33.7348 7.26406 33.4457C6.86656 33.1566 6.56311 32.7567 6.39164 32.2961C6.22017 31.8354 6.1883 31.3345 6.3 30.8558L8.40782 21.7089L1.35938 15.5495C0.98658 15.228 0.717008 14.8036 0.584467 14.3295C0.451926 13.8553 0.462316 13.3526 0.614335 12.8844C0.766355 12.4162 1.05323 12.0032 1.439 11.6974C1.82477 11.3915 2.29225 11.2064 2.78282 11.1652L12.0734 10.3605L15.7 1.71048C15.8894 1.2566 16.2088 0.868897 16.6181 0.596194C17.0274 0.323491 17.5082 0.177979 18 0.177979C18.4918 0.177979 18.9726 0.323491 19.3819 0.596194C19.7912 0.868897 20.1106 1.2566 20.3 1.71048L23.9375 10.3605L33.225 11.1652C33.7156 11.2064 34.183 11.3915 34.5688 11.6974C34.9546 12.0032 35.2415 12.4162 35.3935 12.8844C35.5455 13.3526 35.5559 13.8553 35.4234 14.3295C35.2908 14.8036 35.0212 15.228 34.6484 15.5495H34.6406Z" fill="#FFA800"/>
</svg>
